<svg xmlns="http://www.w3.org/2000/svg" width="108" height="18" viewBox="0 0 108 18">
  <defs>
    <style>
      .cls-1 {
        fill: #fff;
        fill-rule: evenodd;
      }
    </style>
  </defs>
  <path id="ТЕХНОМАРТ" class="cls-1" d="M185.421,15.306h3.8V31.055h2.136V15.306h3.8v-1.75h-9.73v1.75Zm13.765,7.5h5.221v-1.75h-5.221v-5.75h5.933v-1.75H197.05v17.5h8.069v-1.75h-5.933v-6.5Zm12.34-2.25-2.61-7H206.78l3.2,8.5-3.56,9h2.136l2.966-7.5,2.967,7.5h2.136l-3.56-9,3.2-8.5h-2.136Zm14.239-7v7.749h-4.983V13.557h-2.136v17.5h2.136v-8h4.983v8H227.9v-17.5h-2.136Zm7.939,0.175a3.789,3.789,0,0,0-1.6,1.45,7.921,7.921,0,0,0-1.009,2.762,23.055,23.055,0,0,0-.344,4.362,23.055,23.055,0,0,0,.344,4.362A7.915,7.915,0,0,0,232.1,29.43a3.784,3.784,0,0,0,1.6,1.45,5.637,5.637,0,0,0,4.295,0,3.784,3.784,0,0,0,1.6-1.45,7.935,7.935,0,0,0,1.009-2.762,23.055,23.055,0,0,0,.344-4.362,23.055,23.055,0,0,0-.344-4.362,7.941,7.941,0,0,0-1.009-2.762,3.789,3.789,0,0,0-1.6-1.45A5.637,5.637,0,0,0,233.7,13.732Zm1.032,15.749a2.613,2.613,0,0,1-.949-1.175,9.065,9.065,0,0,1-.653-2.3,22.537,22.537,0,0,1-.249-3.7,22.541,22.541,0,0,1,.249-3.7,9.076,9.076,0,0,1,.653-2.3,2.618,2.618,0,0,1,.949-1.175,2.077,2.077,0,0,1,2.231,0,2.618,2.618,0,0,1,.949,1.175,9.076,9.076,0,0,1,.653,2.3,22.541,22.541,0,0,1,.249,3.7,22.537,22.537,0,0,1-.249,3.7,9.065,9.065,0,0,1-.653,2.3,2.613,2.613,0,0,1-.949,1.175A2.076,2.076,0,0,1,234.736,29.48Zm17.253-.675,3.441-10.749h0.119l0.712,13H258.4l-0.949-17.5h-2.611l-3.868,12h-0.095l-3.868-12H244.4l-0.949,17.5h2.136l0.712-13h0.118l3.441,10.749h2.136Zm16.138-2.25,1.068,4.5h2.136l-4.035-17.5h-3.085l-4.034,17.5h2.136l1.068-4.5h4.746Zm-0.356-1.75h-4.034l1.969-8.749H265.8Zm7.831-.625V14.931h1.662a4.056,4.056,0,0,1,1.388.213,2.023,2.023,0,0,1,.961.737,3.627,3.627,0,0,1,.558,1.425,11.849,11.849,0,0,1,.178,2.25,11.849,11.849,0,0,1-.178,2.25,3.626,3.626,0,0,1-.558,1.425,2.021,2.021,0,0,1-.961.738,4.054,4.054,0,0,1-1.388.212H275.6Zm0,1.5a10.855,10.855,0,0,0,1.14.175,11.5,11.5,0,0,0,1.234.075,5.765,5.765,0,0,0,2-.312,3.064,3.064,0,0,0,1.4-1.05,5.041,5.041,0,0,0,.831-1.962,14.318,14.318,0,0,0,.273-3.05,13.124,13.124,0,0,0-.285-2.975,4.548,4.548,0,0,0-.9-1.925,3.4,3.4,0,0,0-1.614-1.037,8.163,8.163,0,0,0-2.42-.312,16.267,16.267,0,0,0-1.982.113,10.711,10.711,0,0,0-1.815.387V31.055H275.6V25.681Zm8.069-10.374h3.8V31.055H289.6V15.306h3.8v-1.75h-9.73v1.75Z" transform="translate(-185.406 -13.313)"/>
</svg>
